<svg width="36" height="65" viewBox="0 0 36 65" fill="none" xmlns="http://www.w3.org/2000/svg">
<g clip-path="url(#clip0_1_520)">
<path d="M35.9301 7.62821V57.3718C35.9301 57.5721 35.849 57.7638 35.7036 57.8983C35.466 58.1243 35.2423 58.4047 35.041 58.7338C34.4288 59.7553 34.2471 60.9026 34.2191 61.1029C34.0737 64.1216 23.9785 64.9285 17.9986 64.9285C12.013 64.9285 1.89823 64.1187 1.77802 61.0972C1.75565 60.9169 1.57952 59.7638 0.956086 58.7309C0.760388 58.4047 0.539529 58.1243 0.299101 57.9011C0.153725 57.7638 0.0698547 57.5721 0.0698547 57.3718V7.63107C0.0698547 7.52806 0.0922202 7.43364 0.128564 7.34494C0.13136 7.33636 0.136951 7.33063 0.139747 7.32491C0.156521 7.28771 0.176091 7.25338 0.198456 7.2219C0.206843 7.2076 0.21523 7.19901 0.223617 7.18757C0.243187 7.16182 0.265552 7.13607 0.290714 7.11318C0.293509 7.11031 0.296305 7.10459 0.299101 7.10173C0.542325 6.87569 0.763184 6.59814 0.956086 6.27482C1.63264 5.15319 1.78081 3.8885 1.78081 3.87419C1.78361 3.86275 1.7892 3.84844 1.7892 3.837C2.05479 0.869834 12.0549 0.0715332 17.9986 0.0715332C23.945 0.0715332 33.9423 0.869834 34.2079 3.837C34.2107 3.84844 34.2163 3.85989 34.2163 3.87419C34.2191 3.88564 34.3757 5.16177 35.0438 6.27196C35.2339 6.5867 35.4492 6.86138 35.684 7.08456L35.6952 7.09601C35.698 7.09887 35.7008 7.10173 35.7036 7.10459L35.7064 7.10745C35.7372 7.13893 35.7651 7.1704 35.7931 7.2076C35.7987 7.21332 35.8015 7.22191 35.8071 7.23049C35.8266 7.26196 35.8462 7.29344 35.863 7.32777C35.8658 7.33636 35.8714 7.34494 35.8742 7.35639C35.8881 7.39072 35.8993 7.42792 35.9077 7.46512C35.9105 7.4737 35.9133 7.48228 35.9161 7.49087C35.9161 7.49659 35.9189 7.50517 35.9217 7.5109C35.9273 7.55095 35.9301 7.58815 35.9301 7.62821ZM34.535 56.9741L34.5322 9.38218C34.5238 9.3879 34.5155 9.39077 34.5071 9.39649C34.3896 9.45658 34.2583 9.51952 34.1213 9.58247C34.0458 9.61681 33.9507 9.65687 33.8473 9.69692C33.7047 9.75701 33.5453 9.81424 33.3748 9.87432C33.3664 9.87718 33.358 9.88005 33.3497 9.88291C32.4578 10.2005 31.3955 10.4609 30.2492 10.6726C29.897 10.7384 29.5363 10.7985 29.1673 10.8557C28.6417 10.9416 28.0882 11.0217 27.4983 11.0932L27.1293 11.1362C26.8888 11.1676 26.6372 11.1962 26.38 11.222C26.2906 11.2306 26.2011 11.242 26.1088 11.2477C26.0054 11.2592 25.9048 11.2706 25.8013 11.2792C25.5106 11.3078 25.2086 11.3364 24.9067 11.3593L24.6467 11.3794C24.4286 11.3965 24.2078 11.4137 23.9869 11.4309C23.8415 11.4423 23.6766 11.4509 23.5116 11.4623C23.3635 11.4709 23.2041 11.4824 23.0392 11.491C22.7261 11.511 22.399 11.5282 22.0719 11.5425C21.7588 11.5568 21.4456 11.5682 21.1241 11.5797C20.6796 11.5968 20.2295 11.6083 19.7738 11.6169C19.5418 11.6226 19.3069 11.6254 19.0693 11.6283H19.0022C18.6695 11.6312 18.334 11.634 17.9986 11.634C17.4254 11.634 6.80745 11.6054 2.18898 9.70551C2.18619 9.70551 2.18619 9.70551 2.18619 9.70551C1.92619 9.59964 1.68576 9.48805 1.4677 9.36788V57.017C1.47329 57.017 1.89823 57.9097 6.29025 58.7023C9.46335 59.2746 13.6205 59.5893 17.9986 59.5893C20.7244 59.5893 23.4334 59.4634 25.846 59.223C25.9048 59.2173 25.9607 59.2116 26.0166 59.2059C26.162 59.1916 26.3045 59.1801 26.4443 59.1601C26.4723 59.1601 26.5002 59.1544 26.5282 59.1515C30.5931 58.7052 32.7234 58.0642 33.7383 57.5807C33.741 57.5778 33.741 57.5778 33.7438 57.5778C33.7886 57.5549 33.8333 57.5349 33.8752 57.512C33.8808 57.5091 33.8864 57.5063 33.892 57.5034C33.9284 57.4834 33.9647 57.4662 33.9955 57.449C34.0066 57.4433 34.015 57.4376 34.0234 57.4319C34.0514 57.4176 34.0793 57.4004 34.1045 57.3861C34.1157 57.3775 34.1269 57.3718 34.1352 57.3661C34.1576 57.3518 34.18 57.3375 34.1995 57.326C34.2107 57.3174 34.2219 57.3088 34.2331 57.3003C34.2499 57.2917 34.2666 57.2802 34.2806 57.2688C34.2918 57.2602 34.303 57.2516 34.3142 57.243C34.3253 57.2344 34.3393 57.223 34.3505 57.2144C34.3617 57.2058 34.3701 57.1973 34.3813 57.1887C34.3896 57.1801 34.4008 57.1715 34.4092 57.1658L34.4344 57.14C34.4428 57.1314 34.4484 57.1257 34.4539 57.1171C34.4623 57.1086 34.4707 57.1 34.4763 57.0914C34.4819 57.0857 34.4875 57.0799 34.4903 57.0742C34.4959 57.0685 34.5015 57.0599 34.5071 57.0513C34.5099 57.0456 34.5155 57.0399 34.5182 57.037C34.521 57.0284 34.5238 57.0227 34.5266 57.017C34.5294 57.0113 34.5322 57.0055 34.5322 57.0027C34.5322 56.9941 34.535 56.9827 34.535 56.9741ZM34.3924 7.77413C34.1995 7.54809 34.0206 7.2963 33.8529 7.02448C33.5481 6.51517 33.3301 5.98583 33.1735 5.51657C33.1623 5.5223 33.1484 5.53088 33.1344 5.53946C33.0589 5.58811 32.9778 5.63389 32.894 5.68253C32.8688 5.69684 32.8436 5.70828 32.8185 5.72259C32.715 5.77981 32.6088 5.83418 32.4942 5.88568C32.4802 5.8914 32.4634 5.89999 32.4494 5.90571C32.346 5.95149 32.237 6.00013 32.1251 6.04591C32.0916 6.05736 32.058 6.07167 32.0245 6.08597C31.8931 6.13748 31.7617 6.18612 31.6191 6.23476C30.8531 6.50372 29.9333 6.73835 28.8905 6.94436C28.2503 7.07312 27.5654 7.18757 26.8385 7.28771C26.7938 7.2963 26.7463 7.30202 26.6987 7.30774C25.9187 7.41647 25.0912 7.50517 24.2273 7.58243C23.2293 7.67113 22.1837 7.7398 21.1018 7.78272C20.0953 7.82278 19.0581 7.84567 17.9986 7.84567C12.3625 7.84567 7.27153 7.2448 4.3808 6.23476C4.23822 6.18612 4.10402 6.13748 3.97542 6.08597C3.94187 6.07167 3.90833 6.05736 3.87478 6.04591C3.76295 6.00013 3.65392 5.95149 3.55048 5.90571C3.5365 5.89999 3.51973 5.8914 3.50575 5.88568C3.39112 5.83418 3.28489 5.77981 3.18145 5.72259C3.15629 5.71114 3.13113 5.69684 3.10597 5.68253C3.02209 5.63675 2.94382 5.58811 2.86833 5.54233C2.85435 5.53374 2.83758 5.52516 2.8264 5.51657C2.67263 5.98583 2.45457 6.5123 2.14705 7.02161C1.9821 7.2963 1.80038 7.55095 1.60468 7.77986C1.92898 8.06599 2.98575 8.72122 6.29304 9.31637C9.46335 9.88863 13.6233 10.2034 17.9986 10.2034C19.0553 10.2034 20.0953 10.1833 21.113 10.149C21.3422 10.1404 21.5631 10.1318 21.7839 10.1204C21.8957 10.1175 22.0076 10.1118 22.1166 10.1061C22.4018 10.0946 22.6841 10.0803 22.9609 10.0603C23.1203 10.0517 23.274 10.046 23.425 10.0346C23.4837 10.0317 23.5368 10.026 23.5927 10.0231C23.6626 10.0202 23.7325 10.0145 23.8052 10.0088C23.8304 10.0059 23.8555 10.0059 23.8807 10.0031C24.1127 9.98878 24.328 9.97161 24.5405 9.95444L24.7781 9.93441C24.7865 9.93441 24.7977 9.93441 24.8088 9.93155C25.0996 9.91152 25.3903 9.88291 25.6727 9.85429C25.8684 9.83713 26.0529 9.8171 26.2374 9.79707C26.4863 9.77132 26.7267 9.74843 26.9643 9.71695L27.2998 9.67689C27.3473 9.67117 27.3949 9.66545 27.4424 9.65973C27.6073 9.63684 27.7695 9.61681 27.9288 9.59678C28.0351 9.57961 28.1385 9.5653 28.2419 9.551C28.3398 9.53669 28.4376 9.52238 28.5327 9.50808C28.6725 9.48805 28.8095 9.46516 28.9465 9.44513C29.0136 9.43368 29.0806 9.42224 29.1449 9.41366C29.2456 9.39649 29.3434 9.37932 29.4413 9.36215C29.5587 9.34212 29.6789 9.31923 29.7935 9.2992L29.8495 9.29062C29.9781 9.26487 30.1095 9.24198 30.2325 9.21623C30.2632 9.2105 30.2968 9.20478 30.3275 9.1962C30.3778 9.18761 30.4226 9.17903 30.4701 9.16758C30.5428 9.15328 30.6155 9.13897 30.6882 9.1218C30.7497 9.11036 30.8084 9.09605 30.8671 9.08461C30.9286 9.0703 30.9817 9.05886 31.0376 9.04741C31.0684 9.03883 31.1019 9.0331 31.1327 9.02452C31.1858 9.01307 31.2361 8.99877 31.2864 8.98732C31.5241 8.93296 31.7393 8.87859 31.9434 8.82137C32.0413 8.79562 32.1279 8.76986 32.2118 8.74411C32.3236 8.7155 32.4271 8.68403 32.5249 8.65255C32.5864 8.63252 32.6451 8.61536 32.7011 8.59533C32.7234 8.5896 32.7458 8.58102 32.7654 8.5753C32.8185 8.55813 32.8688 8.54096 32.9191 8.52093C32.9862 8.49804 33.0477 8.47515 33.112 8.45226C33.1204 8.4494 33.1316 8.44654 33.14 8.44082C33.1651 8.43223 33.1875 8.42365 33.2099 8.41506C33.2742 8.38931 33.3357 8.36642 33.3944 8.34067C33.4112 8.33495 33.4279 8.32636 33.4419 8.32064C33.509 8.29203 33.5733 8.26628 33.632 8.23766C33.6348 8.23766 33.6348 8.2348 33.6376 8.2348C34.0458 8.04596 34.2694 7.88573 34.3924 7.77413ZM33.235 59.3089C33.2211 59.3146 33.2043 59.3203 33.1903 59.3232C33.0142 59.3833 32.8325 59.4434 32.6395 59.5006C32.6284 59.5035 32.6144 59.5063 32.6032 59.5092C32.4047 59.5693 32.1978 59.6265 31.9826 59.6809C31.9742 59.6837 31.9658 59.6866 31.9574 59.6894C31.7421 59.7438 31.5185 59.7953 31.2864 59.8468C31.2613 59.8525 31.2361 59.8611 31.2082 59.8668C30.9845 59.9155 30.7525 59.9641 30.512 60.0099C30.4757 60.0185 30.4366 60.0242 30.4002 60.0328C30.1626 60.0786 29.9166 60.1215 29.6649 60.1644C29.6202 60.173 29.5755 60.1787 29.5308 60.1873C29.2763 60.2302 29.0163 60.2703 28.748 60.3103C28.7004 60.3161 28.6557 60.3218 28.6082 60.3304C28.3342 60.3704 28.0518 60.4076 27.7611 60.4448C27.7219 60.4505 27.6828 60.4563 27.6437 60.4591C27.3529 60.4963 27.0566 60.5307 26.749 60.565C26.7323 60.5679 26.7155 60.5707 26.6987 60.5707C26.6903 60.5736 26.682 60.5736 26.6764 60.5736C26.5086 60.5965 26.3325 60.6136 26.1508 60.6308C23.6542 60.8855 20.8334 61.0199 17.9986 61.0199H17.7889C17.747 61.0199 17.6966 61.0199 17.6435 61.0171H17.5848C17.5233 61.0171 17.4618 61.0171 17.3891 61.0142C17.3863 61.0142 17.3835 61.0142 17.3835 61.0142C17.3136 61.0142 17.2381 61.0142 17.1571 61.0114H17.076C16.9921 61.0085 16.9082 61.0085 16.816 61.0056H16.7964C16.707 61.0056 16.6119 61.0028 16.5169 60.9999C16.4777 60.9999 16.4414 60.9999 16.4022 60.997C16.3016 60.9942 16.2009 60.9942 16.0919 60.9913C16.0779 60.9885 16.064 60.9885 16.05 60.9885C15.9437 60.9856 15.8319 60.9827 15.7173 60.9799C15.6754 60.977 15.6334 60.977 15.5887 60.9742C15.4824 60.9713 15.3734 60.9684 15.2588 60.9656C15.2225 60.9627 15.1861 60.9627 15.1498 60.9599C15.0351 60.957 14.9177 60.9513 14.8003 60.9484C14.75 60.9455 14.7025 60.9427 14.6549 60.9427C14.5347 60.937 14.4117 60.9312 14.2887 60.9255C14.244 60.9255 14.202 60.9227 14.1573 60.9198C14.0315 60.9141 13.9057 60.9084 13.7771 60.9026L13.6177 60.894C13.4891 60.8883 13.3605 60.8797 13.2291 60.874C13.176 60.8712 13.1229 60.8683 13.0698 60.8654C12.9384 60.8568 12.807 60.8483 12.6728 60.8397C12.6141 60.8368 12.5554 60.834 12.4967 60.8282C12.3569 60.8196 12.2143 60.8111 12.0717 60.8025C12.027 60.7996 11.9795 60.7939 11.9347 60.791C11.7921 60.7825 11.6496 60.771 11.5042 60.7596C11.4427 60.7567 11.3812 60.751 11.3197 60.7453C11.1743 60.7367 11.0289 60.7224 10.8836 60.7109C10.8332 60.7081 10.7829 60.7023 10.7326 60.6995C10.5872 60.6852 10.439 60.6737 10.2909 60.6594C10.2294 60.6537 10.1679 60.648 10.1064 60.6423C9.95259 60.6279 9.79883 60.6136 9.64507 60.5965C9.60313 60.5936 9.5612 60.5907 9.52206 60.585C9.3655 60.5679 9.20894 60.5536 9.05238 60.5364C8.99367 60.5278 8.93776 60.5221 8.87905 60.5164C8.72249 60.4992 8.56593 60.4792 8.40937 60.462C8.36744 60.4563 8.3255 60.4505 8.28357 60.4448C8.12981 60.4277 7.97604 60.4076 7.82228 60.3847C7.76357 60.379 7.70766 60.3704 7.64895 60.3618C7.48959 60.3418 7.32744 60.3189 7.16809 60.296C7.13734 60.2903 7.10659 60.2846 7.07863 60.2817C6.91928 60.2588 6.76272 60.2331 6.60616 60.2073C6.55304 60.1987 6.49992 60.1902 6.44681 60.1816C6.28466 60.1558 6.1253 60.1272 5.96595 60.0986C5.94358 60.0957 5.92122 60.0929 5.89885 60.0872C5.74229 60.0585 5.58574 60.0299 5.43197 59.9985C5.38445 59.9899 5.33412 59.9813 5.2866 59.9698C5.12724 59.9384 4.97069 59.9069 4.81692 59.8726C4.80294 59.8697 4.78617 59.8668 4.7694 59.8611C4.61843 59.8296 4.47026 59.7924 4.32209 59.7581C4.28015 59.7467 4.23542 59.7381 4.19349 59.7266C4.03972 59.6894 3.88876 59.6494 3.74059 59.6093C3.73499 59.6093 3.72661 59.6065 3.71822 59.6036C3.57564 59.5635 3.43586 59.5235 3.29607 59.4806C3.25973 59.4691 3.22059 59.4577 3.18145 59.4462C3.04166 59.4033 2.90188 59.3575 2.76769 59.3117C2.76769 59.3117 2.76769 59.3117 2.76489 59.3117C3.08919 60.2216 3.17027 60.9541 3.17027 60.9656C3.17306 60.9913 3.17586 61.0171 3.17586 61.0428C3.41349 61.8898 8.7141 63.4978 17.9986 63.4978C27.2858 63.4978 32.5864 61.8898 32.8269 61.0285C32.8269 60.9999 32.8269 60.9827 32.8297 60.9541C32.8436 60.8454 32.9359 60.1558 33.235 59.3089ZM32.8185 3.95717C32.8185 3.95717 32.8185 3.95431 32.8185 3.95717C32.5193 3.08734 27.2243 1.50218 17.9986 1.50218C8.75045 1.50218 3.45263 3.09592 3.17865 3.96003C3.19543 3.99151 3.32403 4.21182 3.94187 4.51798C3.94467 4.51798 3.94467 4.51798 3.94747 4.52084C3.99499 4.54373 4.04531 4.56663 4.09843 4.58952C4.10962 4.59524 4.118 4.60096 4.12919 4.60668C4.17671 4.62671 4.22703 4.6496 4.27736 4.66963C4.29693 4.67822 4.3165 4.6868 4.33607 4.69538C4.38918 4.71541 4.4451 4.7383 4.50101 4.76119C4.52617 4.76978 4.54574 4.77836 4.5709 4.78694C4.59606 4.79553 4.62402 4.80697 4.65198 4.81556C7.99282 4.06018 12.8377 3.62526 17.9986 3.62526C23.1622 3.62526 28.0043 4.06018 31.3479 4.81556C31.3731 4.80697 31.3983 4.79839 31.4234 4.78981C31.4514 4.77836 31.4765 4.76978 31.5017 4.75833C31.552 4.7383 31.6024 4.71827 31.6499 4.70111C31.6806 4.6868 31.7058 4.67535 31.7337 4.66391C31.7757 4.64674 31.8148 4.62957 31.8512 4.61241C31.8791 4.60096 31.9043 4.58952 31.9294 4.57807C31.9658 4.5609 31.9993 4.5466 32.0301 4.52943C32.0553 4.51798 32.0776 4.50654 32.1 4.49509C32.1307 4.48079 32.1587 4.46362 32.1866 4.44931C32.2062 4.43787 32.2258 4.42642 32.2454 4.41784C32.2733 4.40353 32.2957 4.38922 32.3208 4.37492C32.3376 4.36347 32.3544 4.35489 32.3712 4.34344C32.3935 4.32914 32.4159 4.31769 32.4355 4.30339C32.4494 4.2948 32.4634 4.28336 32.4774 4.27477C32.497 4.26333 32.5137 4.24902 32.5305 4.23758C32.5445 4.22899 32.5557 4.22041 32.5669 4.21182C32.5836 4.20038 32.5976 4.18607 32.6144 4.17463C32.6228 4.16891 32.6312 4.16032 32.6395 4.1546C32.6591 4.13743 32.6787 4.12026 32.6955 4.1031C32.7011 4.10023 32.7038 4.09737 32.7066 4.09451L32.757 4.04301C32.7626 4.03442 32.7682 4.0287 32.7737 4.02012C32.7793 4.0144 32.7821 4.01153 32.7849 4.00581C32.7905 4.00009 32.7933 3.99437 32.7989 3.98864C32.8017 3.98578 32.8045 3.98006 32.8073 3.9772C32.8101 3.97434 32.8101 3.96861 32.8129 3.96575C32.8157 3.96289 32.8157 3.96003 32.8185 3.95717ZM27.3054 5.77123C27.5262 5.73689 27.7387 5.70256 27.9484 5.66536C25.0856 5.27336 21.6274 5.05591 17.9986 5.05591C14.3726 5.05591 10.9143 5.27336 8.04873 5.66536C8.25841 5.70256 8.47367 5.73689 8.69453 5.77123C8.75045 5.77981 8.80916 5.7884 8.86787 5.79698C9.06636 5.82846 9.26485 5.85707 9.46894 5.88282C9.51367 5.88854 9.5584 5.89713 9.60593 5.90285C9.84635 5.93432 10.0924 5.9658 10.3412 5.99441C10.3999 6.00299 10.4586 6.00872 10.5173 6.01444C10.7298 6.04019 10.9423 6.06308 11.1603 6.08311C11.2162 6.08883 11.2722 6.09456 11.3281 6.10028C11.5881 6.12603 11.8537 6.15178 12.1192 6.17467C12.1752 6.17753 12.2311 6.18326 12.287 6.18898C12.5134 6.20615 12.7427 6.22331 12.9719 6.24048C13.039 6.24334 13.1033 6.24907 13.1676 6.25479C13.4444 6.27196 13.724 6.28912 14.0035 6.30629C14.0511 6.30915 14.0986 6.30915 14.1461 6.31201C14.3893 6.32632 14.6354 6.33777 14.8814 6.34921C14.9541 6.35207 15.0295 6.35493 15.1022 6.35779C15.3902 6.36924 15.6809 6.37782 15.9717 6.38641C16.0024 6.38641 16.0332 6.38927 16.064 6.38927C16.3295 6.39499 16.5979 6.40071 16.8663 6.40357C16.9446 6.40644 17.0229 6.40644 17.1011 6.4093C17.4003 6.41216 17.6994 6.41502 17.9986 6.41502C18.3005 6.41502 18.5996 6.41216 18.8988 6.4093C18.9771 6.40644 19.0553 6.40644 19.1336 6.40357C19.402 6.40071 19.6704 6.39499 19.936 6.38927C19.9667 6.38927 19.9975 6.38641 20.0254 6.38641C20.319 6.37782 20.6097 6.36924 20.8977 6.35779C20.9704 6.35493 21.0431 6.35207 21.1185 6.34921C21.3646 6.33777 21.6078 6.32632 21.851 6.31201C21.8985 6.30915 21.9489 6.30915 21.9964 6.30629C22.276 6.28912 22.5555 6.27196 22.8295 6.25479C22.8966 6.24907 22.9609 6.24334 23.028 6.24048C23.2572 6.22331 23.4865 6.20615 23.7101 6.18898C23.7661 6.18326 23.8248 6.17753 23.8807 6.17467C24.1463 6.15178 24.4119 6.12603 24.6719 6.10028C24.7278 6.09456 24.7837 6.08883 24.8396 6.08311C25.0549 6.06308 25.2701 6.04019 25.4798 6.01444C25.5385 6.00872 25.6 6.00299 25.6587 5.99441C25.9075 5.9658 26.1536 5.93432 26.394 5.90285C26.4415 5.89713 26.4863 5.88854 26.531 5.88282C26.7351 5.85707 26.9336 5.82846 27.1293 5.79698C27.188 5.7884 27.2467 5.77981 27.3054 5.77123Z" fill="#111111"/>
<path d="M33.8527 7.02447C34.0204 7.2963 34.1993 7.54809 34.3922 7.77413C34.2692 7.88572 34.0456 8.04596 33.6374 8.2348C33.6346 8.2348 33.6346 8.23766 33.6318 8.23766C33.5731 8.26628 33.5088 8.29203 33.4417 8.32064C33.4277 8.32636 33.411 8.33495 33.3942 8.34067C33.3355 8.36642 33.274 8.38931 33.2097 8.41506C33.1873 8.42365 33.1649 8.43223 33.1398 8.44081C33.1314 8.44654 33.1202 8.4494 33.1118 8.45226C33.0475 8.47515 32.986 8.49804 32.9189 8.52093C32.8686 8.54096 32.8183 8.55813 32.7652 8.57529C32.7456 8.58102 32.7232 8.5896 32.7009 8.59532C32.6449 8.61535 32.5862 8.63252 32.5247 8.65255C32.4269 8.68402 32.3234 8.7155 32.2116 8.74411C32.1277 8.76986 32.0411 8.79561 31.9432 8.82137C31.7391 8.87859 31.5239 8.93296 31.2862 8.98732C31.2359 8.99877 31.1856 9.01307 31.1325 9.02452C31.1017 9.0331 31.0682 9.03882 31.0374 9.04741C30.9815 9.05885 30.9284 9.0703 30.8669 9.08461C30.8082 9.09605 30.7495 9.11036 30.688 9.1218C30.6153 9.13897 30.5426 9.15328 30.4699 9.16758C30.4224 9.17903 30.3777 9.18761 30.3273 9.1962C30.2966 9.20478 30.263 9.2105 30.2323 9.21622C30.1093 9.24198 29.9779 9.26487 29.8493 9.29062L29.7934 9.2992C29.6787 9.31923 29.5585 9.34212 29.4411 9.36215C29.3432 9.37932 29.2454 9.39649 29.1448 9.41365C29.0805 9.42224 29.0134 9.43368 28.9463 9.44513C28.8093 9.46516 28.6723 9.48805 28.5325 9.50808C28.4374 9.52238 28.3396 9.53669 28.2417 9.551C28.1383 9.5653 28.0349 9.57961 27.9286 9.59678C27.7693 9.61681 27.6071 9.63683 27.4422 9.65972C27.3947 9.66545 27.3471 9.67117 27.2996 9.67689L26.9641 9.71695C26.7265 9.74843 26.4861 9.77132 26.2372 9.79707C26.0527 9.8171 25.8682 9.83713 25.6725 9.85429C25.3902 9.88291 25.0994 9.91152 24.8087 9.93155C24.7975 9.93441 24.7863 9.93441 24.7779 9.93441L24.5403 9.95444C24.3278 9.97161 24.1125 9.98877 23.8805 10.0031C23.8553 10.0059 23.8302 10.0059 23.805 10.0088C23.7323 10.0145 23.6624 10.0202 23.5925 10.0231C23.5366 10.026 23.4835 10.0317 23.4248 10.0346C23.2738 10.046 23.1201 10.0517 22.9607 10.0603C22.6839 10.0803 22.4016 10.0946 22.1164 10.1061C22.0074 10.1118 21.8956 10.1175 21.7837 10.1204C21.5629 10.1318 21.342 10.1404 21.1128 10.149C20.0951 10.1833 19.0551 10.2034 17.9984 10.2034C13.6231 10.2034 9.46315 9.88863 6.29285 9.31637C2.98556 8.72122 1.92879 8.06598 1.60449 7.77985C1.80019 7.55095 1.98191 7.2963 2.14685 7.02161C2.45438 6.5123 2.67244 5.98582 2.82621 5.51657C2.83739 5.52515 2.85416 5.53374 2.86814 5.54232C2.94362 5.5881 3.0219 5.63675 3.10577 5.68253C3.13093 5.69683 3.1561 5.71114 3.18126 5.72258C3.2847 5.77981 3.39093 5.83417 3.50556 5.88568C3.51953 5.8914 3.53631 5.89998 3.55029 5.90571C3.65373 5.95149 3.76276 6.00013 3.87459 6.04591C3.90813 6.05736 3.94168 6.07166 3.97523 6.08597C4.10383 6.13747 4.23802 6.18611 4.3806 6.23476C7.27134 7.24479 12.3623 7.84566 17.9984 7.84566C19.0579 7.84566 20.0951 7.82277 21.1016 7.78272C22.1835 7.7398 23.2291 7.67113 24.2272 7.58243C25.091 7.50517 25.9185 7.41647 26.6985 7.30774C26.7461 7.30202 26.7936 7.2963 26.8383 7.28771C27.5652 7.18757 28.2501 7.07312 28.8903 6.94436C29.9331 6.73834 30.8529 6.50372 31.6189 6.23476C31.7615 6.18611 31.8929 6.13747 32.0243 6.08597C32.0579 6.07166 32.0914 6.05736 32.125 6.04591C32.2368 6.00013 32.3458 5.95149 32.4493 5.90571C32.4632 5.89998 32.48 5.8914 32.494 5.88568C32.6086 5.83417 32.7148 5.77981 32.8183 5.72258C32.8434 5.70828 32.8686 5.69683 32.8938 5.68253C32.9776 5.63388 33.0587 5.5881 33.1342 5.53946C33.1482 5.53088 33.1622 5.52229 33.1733 5.51657C33.3299 5.98582 33.548 6.51516 33.8527 7.02447Z" fill="#B5B5B6"/>
<path d="M33.1906 59.3232C33.2045 59.3203 33.2213 59.3146 33.2353 59.3089C32.9362 60.1558 32.8439 60.8454 32.8299 60.9541C32.8271 60.9827 32.8271 60.9999 32.8271 61.0285C32.5867 61.8898 27.2861 63.4978 17.9988 63.4978C8.71438 63.4978 3.41377 61.8898 3.17613 61.0428C3.17613 61.0171 3.17334 60.9913 3.17054 60.9656C3.17054 60.9541 3.08947 60.2216 2.76517 59.3117C2.76796 59.3117 2.76796 59.3117 2.76796 59.3117C2.90216 59.3575 3.04194 59.4033 3.18172 59.4462C3.22086 59.4577 3.26 59.4691 3.29635 59.4806C3.43613 59.5235 3.57591 59.5635 3.71849 59.6036C3.72688 59.6065 3.73527 59.6093 3.74086 59.6093C3.88903 59.6494 4.04 59.6894 4.19376 59.7266C4.2357 59.7381 4.28043 59.7467 4.32236 59.7581C4.47053 59.7924 4.6187 59.8296 4.76967 59.8611C4.78644 59.8668 4.80322 59.8697 4.8172 59.8726C4.97096 59.9069 5.12752 59.9384 5.28687 59.9698C5.3344 59.9813 5.38472 59.9899 5.43225 59.9985C5.58601 60.0299 5.74257 60.0585 5.89913 60.0872C5.92149 60.0929 5.94386 60.0957 5.96622 60.0986C6.12558 60.1272 6.28493 60.1558 6.44708 60.1816C6.5002 60.1902 6.55332 60.1987 6.60643 60.2073C6.76299 60.2331 6.91955 60.2588 7.0789 60.2817C7.10686 60.2846 7.13761 60.2903 7.16837 60.296C7.32772 60.3189 7.48987 60.3418 7.64922 60.3618C7.70793 60.3704 7.76385 60.379 7.82256 60.3847C7.97632 60.4076 8.13008 60.4277 8.28384 60.4448C8.32578 60.4505 8.36771 60.4563 8.40965 60.462C8.56621 60.4792 8.72276 60.4992 8.87932 60.5164C8.93803 60.5221 8.99395 60.5278 9.05266 60.5364C9.20921 60.5536 9.36577 60.5679 9.52233 60.585C9.56147 60.5907 9.6034 60.5936 9.64534 60.5965C9.7991 60.6136 9.95287 60.6279 10.1066 60.6422C10.1681 60.648 10.2296 60.6537 10.2911 60.6594C10.4393 60.6737 10.5875 60.6852 10.7329 60.6995C10.7832 60.7023 10.8335 60.7081 10.8838 60.7109C11.0292 60.7224 11.1746 60.7367 11.32 60.7453C11.3815 60.751 11.443 60.7567 11.5045 60.7596C11.6498 60.771 11.7924 60.7825 11.935 60.791C11.9797 60.7939 12.0273 60.7996 12.072 60.8025C12.2146 60.8111 12.3572 60.8196 12.4969 60.8282C12.5556 60.834 12.6144 60.8368 12.6731 60.8397C12.8073 60.8483 12.9387 60.8568 13.07 60.8654C13.1232 60.8683 13.1763 60.8712 13.2294 60.874C13.3608 60.8797 13.4894 60.8883 13.618 60.894L13.7774 60.9026C13.906 60.9084 14.0318 60.9141 14.1576 60.9198C14.2023 60.9227 14.2442 60.9255 14.289 60.9255C14.412 60.9312 14.535 60.937 14.6552 60.9427C14.7027 60.9427 14.7503 60.9455 14.8006 60.9484C14.918 60.9513 15.0354 60.957 15.15 60.9599C15.1864 60.9627 15.2227 60.9627 15.2591 60.9656C15.3737 60.9684 15.4827 60.9713 15.589 60.9742C15.6337 60.977 15.6756 60.977 15.7176 60.9799C15.8322 60.9827 15.944 60.9856 16.0502 60.9885C16.0642 60.9885 16.0782 60.9885 16.0922 60.9913C16.2012 60.9942 16.3019 60.9942 16.4025 60.997C16.4416 60.9999 16.478 60.9999 16.5171 60.9999C16.6122 61.0028 16.7072 61.0056 16.7967 61.0056H16.8163C16.9085 61.0085 16.9924 61.0085 17.0763 61.0114H17.1573C17.2384 61.0142 17.3139 61.0142 17.3838 61.0142C17.3838 61.0142 17.3866 61.0142 17.3894 61.0142C17.4621 61.0171 17.5236 61.0171 17.5851 61.0171H17.6438C17.6969 61.0199 17.7472 61.0199 17.7892 61.0199H17.9988C20.8337 61.0199 23.6545 60.8855 26.151 60.6308C26.3328 60.6136 26.5089 60.5965 26.6766 60.5736C26.6822 60.5736 26.6906 60.5736 26.699 60.5707C26.7158 60.5707 26.7325 60.5679 26.7493 60.565C27.0568 60.5307 27.3532 60.4963 27.6439 60.4591C27.6831 60.4563 27.7222 60.4505 27.7614 60.4448C28.0521 60.4076 28.3345 60.3704 28.6084 60.3304C28.656 60.3218 28.7007 60.3161 28.7482 60.3103C29.0166 60.2703 29.2766 60.2302 29.531 60.1873C29.5758 60.1787 29.6205 60.173 29.6652 60.1644C29.9168 60.1215 30.1628 60.0786 30.4005 60.0328C30.4368 60.0242 30.476 60.0185 30.5123 60.0099C30.7527 59.9641 30.9848 59.9155 31.2084 59.8668C31.2364 59.8611 31.2616 59.8525 31.2867 59.8468C31.5188 59.7953 31.7424 59.7438 31.9577 59.6894C31.9661 59.6866 31.9744 59.6837 31.9828 59.6809C32.1981 59.6265 32.405 59.5693 32.6035 59.5092C32.6147 59.5063 32.6286 59.5035 32.6398 59.5006C32.8327 59.4434 33.0144 59.3833 33.1906 59.3232Z" fill="#B5B5B6"/>
<path d="M32.8213 3.95431C32.8185 3.95431 32.8185 3.95717 32.8213 3.95431C32.8157 3.96003 32.8157 3.96289 32.8129 3.96576C32.8101 3.96862 32.8101 3.97434 32.8073 3.9772C32.8045 3.98006 32.8017 3.98578 32.7989 3.98865C32.7933 3.99437 32.7905 4.00009 32.7849 4.00581C32.7821 4.01154 32.7793 4.0144 32.7737 4.02012C32.7681 4.0287 32.7626 4.03443 32.757 4.04301L32.7066 4.09451C32.7038 4.09738 32.701 4.10024 32.6955 4.1031C32.6787 4.12027 32.6591 4.13743 32.6395 4.1546C32.6312 4.16032 32.6228 4.16891 32.6144 4.17463C32.5976 4.18608 32.5836 4.20038 32.5669 4.21183C32.5557 4.22041 32.5445 4.229 32.5305 4.23758C32.5137 4.24902 32.497 4.26333 32.4774 4.27478C32.4634 4.28336 32.4494 4.2948 32.4355 4.30339C32.4159 4.3177 32.3935 4.32914 32.3712 4.34345C32.3544 4.35489 32.3376 4.36348 32.3208 4.37492C32.2957 4.38923 32.2733 4.40353 32.2454 4.41784C32.2258 4.42642 32.2062 4.43787 32.1866 4.44931C32.1587 4.46362 32.1307 4.48079 32.1 4.4951C32.0776 4.50654 32.0552 4.51799 32.0301 4.52943C31.9993 4.5466 31.9658 4.56091 31.9294 4.57807C31.9043 4.58952 31.8791 4.60096 31.8512 4.61241C31.8148 4.62958 31.7757 4.64674 31.7337 4.66391C31.7058 4.67536 31.6806 4.6868 31.6499 4.70111C31.6023 4.71828 31.552 4.73831 31.5017 4.75833C31.4765 4.76978 31.4514 4.77836 31.4234 4.78981C31.3983 4.79839 31.3731 4.80698 31.3479 4.81556C28.0043 4.06018 23.1622 3.62526 17.9986 3.62526C12.8377 3.62526 7.99281 4.06018 4.65197 4.81556C4.62402 4.80698 4.59606 4.79553 4.5709 4.78695C4.54574 4.77836 4.52617 4.76978 4.50101 4.7612C4.44509 4.73831 4.38918 4.71541 4.33606 4.69539C4.31649 4.6868 4.29692 4.67822 4.27735 4.66963C4.22703 4.64961 4.17671 4.62672 4.12918 4.60669C4.118 4.60096 4.10961 4.59524 4.09843 4.58952C4.04531 4.56663 3.99499 4.54374 3.94746 4.52085C3.94467 4.51799 3.94467 4.51799 3.94187 4.51799C3.32403 4.21183 3.19542 3.99151 3.17865 3.96003C3.45263 3.09592 8.75044 1.50218 17.9986 1.50218C27.2243 1.50218 32.5193 3.08734 32.8213 3.95431Z" fill="#595757"/>
<path d="M27.9485 5.66536C27.7388 5.70256 27.5263 5.7369 27.3055 5.77123C27.2467 5.77982 27.188 5.7884 27.1293 5.79698C26.9336 5.82846 26.7351 5.85707 26.5311 5.88282C26.4863 5.88854 26.4416 5.89713 26.3941 5.90285C26.1536 5.93432 25.9076 5.9658 25.6588 5.99441C25.6001 6.003 25.5386 6.00872 25.4799 6.01444C25.2702 6.04019 25.0549 6.06308 24.8397 6.08311C24.7837 6.08883 24.7278 6.09456 24.6719 6.10028C24.4119 6.12603 24.1463 6.15178 23.8807 6.17467C23.8248 6.17753 23.7661 6.18326 23.7102 6.18898C23.4866 6.20615 23.2573 6.22332 23.0281 6.24048C22.961 6.24334 22.8967 6.24907 22.8296 6.25479C22.5556 6.27196 22.276 6.28913 21.9965 6.30629C21.9489 6.30915 21.8986 6.30915 21.8511 6.31202C21.6079 6.32632 21.3646 6.33777 21.1186 6.34921C21.0431 6.35207 20.9704 6.35493 20.8978 6.3578C20.6098 6.36924 20.319 6.37783 20.0255 6.38641C19.9975 6.38641 19.9668 6.38927 19.936 6.38927C19.6704 6.39499 19.4021 6.40072 19.1337 6.40358C19.0554 6.40644 18.9771 6.40644 18.8988 6.4093C18.5997 6.41216 18.3006 6.41502 17.9986 6.41502C17.6995 6.41502 17.4004 6.41216 17.1012 6.4093C17.0229 6.40644 16.9447 6.40644 16.8664 6.40358C16.598 6.40072 16.3296 6.39499 16.064 6.38927C16.0333 6.38927 16.0025 6.38641 15.9718 6.38641C15.681 6.37783 15.3903 6.36924 15.1023 6.3578C15.0296 6.35493 14.9541 6.35207 14.8814 6.34921C14.6354 6.33777 14.3894 6.32632 14.1462 6.31202C14.0987 6.30915 14.0511 6.30915 14.0036 6.30629C13.724 6.28913 13.4445 6.27196 13.1677 6.25479C13.1034 6.24907 13.0391 6.24334 12.972 6.24048C12.7427 6.22332 12.5135 6.20615 12.2871 6.18898C12.2311 6.18326 12.1752 6.17753 12.1193 6.17467C11.8537 6.15178 11.5881 6.12603 11.3281 6.10028C11.2722 6.09456 11.2163 6.08883 11.1604 6.08311C10.9423 6.06308 10.7299 6.04019 10.5174 6.01444C10.4587 6.00872 10.4 6.003 10.3413 5.99441C10.0924 5.9658 9.84642 5.93432 9.60599 5.90285C9.55847 5.89713 9.51373 5.88854 9.469 5.88282C9.26492 5.85707 9.06643 5.82846 8.86793 5.79698C8.80922 5.7884 8.75051 5.77982 8.6946 5.77123C8.47374 5.7369 8.25847 5.70256 8.0488 5.66536C10.9144 5.27337 14.3726 5.05591 17.9986 5.05591C21.6274 5.05591 25.0857 5.27337 27.9485 5.66536Z" fill="#898989"/>
<path d="M34.535 56.9741C34.535 56.9827 34.5322 56.9941 34.5322 57.0027C34.5322 57.0055 34.5294 57.0113 34.5266 57.017C34.5238 57.0227 34.521 57.0284 34.5182 57.037C34.5154 57.0399 34.5099 57.0456 34.5071 57.0513C34.5015 57.0599 34.4959 57.0685 34.4903 57.0742C34.4875 57.0799 34.4819 57.0857 34.4763 57.0914C34.4707 57.1 34.4623 57.1085 34.4539 57.1171C34.4483 57.1257 34.4428 57.1314 34.4344 57.14L34.4092 57.1658C34.4008 57.1715 34.3896 57.1801 34.3813 57.1887C34.3701 57.1972 34.3617 57.2058 34.3505 57.2144C34.3393 57.223 34.3253 57.2344 34.3142 57.243C34.303 57.2516 34.2918 57.2602 34.2806 57.2688C34.2666 57.2802 34.2499 57.2917 34.2331 57.3003C34.2219 57.3088 34.2107 57.3174 34.1995 57.326C34.18 57.3375 34.1576 57.3518 34.1352 57.3661C34.1268 57.3718 34.1157 57.3775 34.1045 57.3861C34.0793 57.4004 34.0514 57.4176 34.0234 57.4319C34.015 57.4376 34.0066 57.4433 33.9954 57.449C33.9647 57.4662 33.9284 57.4834 33.892 57.5034C33.8864 57.5063 33.8808 57.5091 33.8752 57.512C33.8333 57.5349 33.7886 57.5549 33.7438 57.5778C33.741 57.5778 33.741 57.5778 33.7382 57.5807C32.7234 58.0642 30.5931 58.7052 26.5282 59.1515C26.5002 59.1544 26.4723 59.1601 26.4443 59.1601C25.4714 55.0169 24.423 47.1713 27.9456 40.0324C33.3273 29.1251 34.4679 19.5941 30.2492 10.6726C31.3955 10.4609 32.4578 10.2005 33.3496 9.88291C33.358 9.88005 33.3664 9.87719 33.3748 9.87433C33.5453 9.81424 33.7047 9.75702 33.8473 9.69693C33.9507 9.65687 34.0458 9.61681 34.1213 9.58248C34.2582 9.51953 34.3896 9.45658 34.5071 9.39649C34.5154 9.39077 34.5238 9.38791 34.5322 9.38219L34.535 56.9741Z" fill="#BB6BD9"/>
<path d="M27.9455 40.0323C24.423 47.1713 25.4714 55.0169 26.4443 59.1601C26.3045 59.1801 26.1619 59.1916 26.0165 59.2059C25.9606 59.2116 25.9047 59.2173 25.846 59.223C24.5264 55.263 22.6841 47.3372 25.681 39.7434C29.9892 28.839 30.4812 19.5369 26.1088 11.2477C26.201 11.242 26.2905 11.2306 26.38 11.222C26.6372 11.1962 26.8888 11.1676 27.1292 11.1362L27.4982 11.0932C28.0881 11.0217 28.6417 10.9416 29.1673 10.8557C29.5363 10.7985 29.8969 10.7384 30.2492 10.6726C34.4679 19.5941 33.3272 29.1251 27.9455 40.0323Z" fill="white"/>
<path d="M25.8462 59.2231C23.4335 59.4634 20.7245 59.5893 17.9987 59.5893C13.6207 59.5893 9.46348 59.2746 6.29039 58.7023C1.89837 57.9097 1.47343 57.017 1.46783 57.017V9.36787C1.6859 9.48805 1.92633 9.59964 2.18632 9.70551C2.18632 9.70551 2.18632 9.70551 2.18912 9.70551C6.80759 11.6054 17.4256 11.634 17.9987 11.634C18.3342 11.634 18.6697 11.6312 19.0024 11.6283H19.0694C19.3071 11.6254 19.5419 11.6226 19.774 11.6168C20.2297 11.6083 20.6798 11.5968 21.1243 11.5797C21.4458 11.5682 21.7589 11.5568 22.072 11.5425C22.3991 11.5282 22.7262 11.511 23.0393 11.491C23.2043 11.4824 23.3636 11.4709 23.5118 11.4623C23.6767 11.4509 23.8417 11.4423 23.9871 11.4309C24.2079 11.4137 24.4288 11.3965 24.6468 11.3794L24.9068 11.3593C25.2088 11.3364 25.5107 11.3078 25.8015 11.2792C25.9049 11.2706 26.0055 11.2592 26.109 11.2477C30.4814 19.5369 29.9894 28.839 25.6812 39.7434C22.6843 47.3372 24.5266 55.263 25.8462 59.2231Z" fill="#BB6BD9"/>
<path d="M9.13361 46.5704C9.13361 46.1813 9.2706 45.8837 9.54178 45.6748C9.75704 45.506 10.017 45.423 10.3246 45.423C10.8753 45.423 11.5015 45.6119 12.2061 45.9896C12.8127 46.3215 13.3579 46.7335 13.8387 47.2256C14.1519 47.5518 14.3056 47.8065 14.3056 47.9925C14.3056 48.1155 14.2469 48.2271 14.1267 48.333C14.0428 48.4073 13.945 48.4474 13.8387 48.4474C13.6402 48.4474 13.4138 48.27 13.1594 47.9152C12.7959 47.4145 12.399 47.0196 11.9684 46.722C11.345 46.2871 10.8166 46.0697 10.3861 46.0697C10.2099 46.0697 10.0785 46.1097 9.99468 46.187C9.91081 46.2642 9.86608 46.3816 9.86608 46.5389C9.86608 46.8594 10.0925 47.3115 10.5454 47.898C11.057 48.5647 11.7504 49.2715 12.631 50.0125C13.7493 50.9596 14.848 51.6778 15.9327 52.1728C17.0538 52.6793 18.0127 52.9339 18.8067 52.9339C19.1869 52.9339 19.5112 52.8223 19.7768 52.5934C20.0787 52.3445 20.2269 52.0383 20.2269 51.6778C20.2269 51.0512 19.7516 50.2615 18.7983 49.3087C18.5103 49.0254 18.0882 48.6792 17.5402 48.2729C17.188 48.0068 16.9391 47.8351 16.791 47.7578C16.626 47.672 16.545 47.569 16.545 47.4517C16.545 47.3229 16.6037 47.26 16.7239 47.26C16.9783 47.26 17.5514 47.5862 18.4432 48.2357C19.1869 48.7765 19.7935 49.3716 20.2632 50.0211C20.7916 50.7536 21.0544 51.4432 21.0544 52.0927C21.0544 52.7708 20.758 53.2973 20.1598 53.6693C19.7796 53.9068 19.3462 54.0269 18.857 54.0269C17.6325 54.0269 16.0865 53.4346 14.219 52.2501C12.631 51.24 11.3506 50.1756 10.3805 49.054C9.55016 48.0897 9.13361 47.26 9.13361 46.5704Z" fill="white"/>
<path d="M14.5881 43.6004C14.5881 43.1254 14.8705 42.8851 15.438 42.8851C16.1928 42.8851 17.149 43.2427 18.3064 43.9552C19.5588 44.7334 20.1879 45.486 20.1879 46.2099C20.1879 46.5475 20.0341 46.7936 19.7294 46.9509C19.5756 47.0311 19.3911 47.074 19.1758 47.074C18.4489 47.074 17.6606 46.8193 16.8107 46.3072C16.0223 45.8322 15.41 45.2714 14.9739 44.6276C14.7139 44.2499 14.5881 43.9065 14.5881 43.6004ZM17.8031 44.5045C17.6885 44.6505 17.6019 44.722 17.5403 44.722C17.4956 44.722 17.3698 44.6304 17.1657 44.4445C16.5926 43.9208 16.1313 43.6605 15.7791 43.6605C15.7343 43.6605 15.6896 43.6748 15.6421 43.7034C15.5582 43.7492 15.5135 43.8236 15.5135 43.9208C15.5135 44.1068 15.6896 44.3786 16.0419 44.7392C16.4948 45.2027 16.9644 45.5575 17.4453 45.8007C17.996 46.084 18.4517 46.227 18.8152 46.227C18.9102 46.227 18.9969 46.2013 19.0696 46.1498C19.173 46.0754 19.2233 45.9781 19.2233 45.8637C19.2233 45.5861 19.0193 45.2857 18.6111 44.9681C18.4406 44.8279 18.2644 44.7163 18.0827 44.6276C17.9038 44.5417 17.8087 44.4988 17.8031 44.5045Z" fill="white"/>
<path d="M17.2495 41.3972C17.6912 41.5717 18.049 41.7033 18.3202 41.7892C18.5914 41.875 18.7815 41.9208 18.8905 41.9208C19.0331 41.9208 19.103 41.8521 19.103 41.7119C19.103 41.503 18.9101 41.2341 18.5243 40.9022C18.337 40.7448 17.9987 40.513 17.5123 40.2069C17.3194 40.0838 17.2243 39.9579 17.2243 39.8235C17.2243 39.6718 17.2942 39.5974 17.4368 39.5974C17.68 39.5974 18.1748 39.8836 18.9185 40.4587C19.6957 41.0567 20.0843 41.6118 20.0843 42.1211C20.0843 42.3414 19.9948 42.5217 19.8131 42.6619C19.6817 42.7592 19.5252 42.8107 19.3379 42.8107C19.0191 42.8107 18.5802 42.7105 18.0183 42.5159C17.4564 42.3185 16.7742 42.0267 15.9691 41.6375C13.9226 40.6389 12.234 39.6203 10.9061 38.5817C9.84092 37.7519 9.30695 37.0623 9.30695 36.5187C9.30695 36.3441 9.37125 36.2011 9.50264 36.0923C9.63404 35.975 9.78221 35.9178 9.95275 35.9178C10.7467 35.9178 12.0691 36.6446 13.917 38.0952C14.739 38.7448 15.5609 39.523 16.3856 40.4301C16.5981 40.659 16.886 40.9852 17.2495 41.3972ZM15.8964 40.7791C14.8871 39.5717 13.6095 38.493 12.0691 37.5402C11.2695 37.048 10.7383 36.7991 10.4783 36.7991C10.3525 36.7991 10.291 36.8534 10.291 36.965C10.291 37.2855 10.9117 37.8663 12.153 38.7076C13.1734 39.4029 14.423 40.0953 15.8964 40.7791Z" fill="white"/>
<path d="M18.6696 36.4328C18.9995 36.6245 19.2762 36.8134 19.5027 36.9994C19.9444 37.3656 20.1653 37.729 20.1653 38.0867C20.1653 38.4014 20.0199 38.6446 19.7319 38.8192C19.5446 38.9307 19.3238 38.9851 19.0694 38.9851C18.4403 38.9851 17.7442 38.782 16.9838 38.3757C16.1395 37.9236 15.4881 37.3771 15.0352 36.739C14.7416 36.3212 14.5935 35.9178 14.5935 35.5287C14.5935 35.2855 14.6662 35.0823 14.8143 34.9192C14.9457 34.779 15.0911 34.7103 15.2561 34.7103C15.3819 34.7103 15.5552 34.759 15.776 34.8591C15.8963 34.7704 15.9997 34.7275 16.092 34.7275C16.2122 34.7275 16.4079 34.8076 16.6791 34.9707C16.9558 35.1395 17.3249 35.3084 17.7861 35.4772C18.2754 35.6574 18.6668 35.7461 18.9603 35.7461C19.198 35.7461 19.3937 35.6746 19.5474 35.5287C19.5866 35.4886 19.6537 35.3684 19.7431 35.171C19.8102 35.0251 19.9304 34.9536 20.101 34.9536C20.21 34.9536 20.2967 34.9936 20.3638 35.0766C20.4365 35.1624 20.4756 35.2654 20.4756 35.3827C20.4756 35.6975 20.3386 35.9664 20.0674 36.1925C19.8466 36.3785 19.567 36.47 19.2343 36.47C19.1197 36.47 18.9324 36.4586 18.6696 36.4328ZM15.8711 35.3455C15.7453 35.4142 15.653 35.4915 15.5943 35.5716C15.5356 35.6517 15.5049 35.7404 15.5049 35.832C15.5049 36.2726 15.8823 36.7533 16.6371 37.2683C17.4702 37.8377 18.1775 38.121 18.7562 38.121C18.8988 38.121 19.0051 38.0924 19.0805 38.038C19.1532 37.9837 19.1924 37.9007 19.1924 37.7891C19.1924 37.5115 18.9044 37.1854 18.3257 36.8134C18.007 36.6045 17.5401 36.347 16.9223 36.038C16.5197 35.8348 16.2541 35.686 16.1227 35.5945C16.05 35.5516 15.969 35.4686 15.8711 35.3455Z" fill="white"/>
<path d="M12.3182 28.9048C12.3182 28.5156 12.4552 28.2181 12.7263 28.0092C12.9416 27.8404 13.2016 27.7574 13.5091 27.7574C14.0599 27.7574 14.6861 27.9462 15.3906 28.3239C15.9973 28.6558 16.5425 29.0679 17.0233 29.56C17.3364 29.8862 17.4902 30.1408 17.4902 30.3268C17.4902 30.4499 17.4315 30.5615 17.3113 30.6673C17.2274 30.7417 17.1295 30.7818 17.0233 30.7818C16.8248 30.7818 16.5984 30.6044 16.344 30.2496C15.9805 29.7488 15.5835 29.354 15.153 29.0564C14.5296 28.6215 14.0012 28.404 13.5706 28.404C13.3945 28.404 13.2631 28.4441 13.1792 28.5213C13.0954 28.5986 13.0506 28.7159 13.0506 28.8733C13.0506 29.1938 13.2771 29.6458 13.73 30.2324C14.2416 30.8991 14.9349 31.6058 15.8156 32.3469C16.9338 33.294 18.0326 34.0122 19.1173 34.5072C20.2411 35.0193 21.2001 35.274 21.994 35.274C22.3742 35.274 22.6985 35.1595 22.9641 34.9335C23.2661 34.6846 23.4142 34.3784 23.4142 34.0179C23.4142 33.3913 22.939 32.6016 21.9856 31.6487C21.6977 31.3655 21.2755 31.0193 20.7276 30.613C20.3753 30.3469 20.1265 30.1752 19.9783 30.0979C19.8134 30.0121 19.7323 29.9091 19.7323 29.7918C19.7323 29.663 19.791 29.6001 19.9113 29.6001C20.1657 29.6001 20.7388 29.9262 21.6306 30.5758C22.3742 31.1165 22.9809 31.7117 23.4506 32.3612C23.979 33.0937 24.2418 33.7833 24.2418 34.4328C24.2418 35.1109 23.9454 35.6374 23.3471 36.0094C22.9669 36.2468 22.5336 36.367 22.0444 36.367C20.8198 36.367 19.2738 35.7747 17.4063 34.5902C15.8184 33.5801 14.5379 32.5157 13.5678 31.3941C12.7347 30.427 12.3182 29.5972 12.3182 28.9048Z" fill="white"/>
<path d="M17.7727 25.9376C17.7727 25.4626 18.055 25.2223 18.6226 25.2223C19.3774 25.2223 20.3335 25.58 21.4909 26.2924C22.7434 27.0707 23.3724 27.8232 23.3724 28.5471C23.3724 28.8847 23.2187 29.1308 22.9139 29.2882C22.7602 29.3683 22.5757 29.4112 22.3604 29.4112C21.6335 29.4112 20.8451 29.1566 19.9952 28.6444C19.2069 28.1694 18.5946 27.6086 18.1585 26.9648C17.8985 26.5871 17.7727 26.2438 17.7727 25.9376ZM20.9877 26.8418C20.8731 26.9877 20.7864 27.0592 20.7249 27.0592C20.6802 27.0592 20.5544 26.9677 20.3503 26.7817C19.7772 26.2581 19.3159 25.9977 18.9636 25.9977C18.9189 25.9977 18.8742 26.012 18.8266 26.0406C18.7428 26.0864 18.698 26.1608 18.698 26.2581C18.698 26.4441 18.8742 26.7159 19.2264 27.0764C19.6793 27.5399 20.149 27.8947 20.6299 28.1379C21.1806 28.4212 21.6363 28.5643 21.9997 28.5643C22.0948 28.5643 22.1815 28.5385 22.2542 28.487C22.3576 28.4126 22.4079 28.3153 22.4079 28.2009C22.4079 27.9233 22.2038 27.6229 21.7957 27.3053C21.6251 27.1651 21.449 27.0535 21.2673 26.9648C21.0884 26.8761 20.9933 26.8361 20.9877 26.8418Z" fill="white"/>
<path d="M20.434 23.7344C20.8758 23.909 21.2336 24.0406 21.5048 24.1264C21.776 24.2123 21.9661 24.258 22.0751 24.258C22.2177 24.258 22.2876 24.1894 22.2876 24.0492C22.2876 23.8403 22.0947 23.5713 21.7089 23.2394C21.5216 23.082 21.1833 22.8503 20.6968 22.5441C20.5067 22.4182 20.4089 22.2923 20.4089 22.1578C20.4089 22.0062 20.4788 21.9318 20.6214 21.9318C20.8646 21.9318 21.3594 22.2179 22.1031 22.7931C22.8803 23.3911 23.2689 23.9462 23.2689 24.4555C23.2689 24.6758 23.1794 24.856 22.9977 24.9963C22.8663 25.0935 22.7097 25.145 22.5224 25.145C22.2037 25.145 21.7648 25.0449 21.2029 24.8503C20.6409 24.6529 19.9588 24.361 19.1536 23.9719C17.1072 22.9733 15.4186 21.9547 14.0906 20.916C13.0255 20.0863 12.4915 19.3967 12.4915 18.8531C12.4915 18.6785 12.5558 18.5355 12.6872 18.4267C12.8186 18.3094 12.9668 18.2522 13.1373 18.2522C13.9313 18.2522 15.2536 18.979 17.1016 20.4296C17.9235 21.0791 18.7455 21.8574 19.5702 22.7644C19.7827 22.9962 20.0734 23.3224 20.434 23.7344ZM19.0809 23.1135C18.0717 21.9061 16.7941 20.8273 15.2537 19.8745C14.4541 19.3824 13.9229 19.1335 13.6629 19.1335C13.5371 19.1335 13.4756 19.1878 13.4756 19.2994C13.4756 19.6199 14.0962 20.2007 15.3375 21.0419C16.3607 21.7401 17.6076 22.4297 19.0809 23.1135Z" fill="white"/>
<path d="M21.8569 18.7701C22.1868 18.9618 22.4636 19.1506 22.69 19.3366C23.1318 19.7029 23.3526 20.0662 23.3526 20.4239C23.3526 20.7386 23.2072 20.9819 22.9193 21.1564C22.732 21.268 22.5111 21.3224 22.2567 21.3224C21.6277 21.3224 20.9316 21.1192 20.1711 20.7129C19.3268 20.2608 18.6754 19.7143 18.2225 19.0762C17.929 18.6585 17.7808 18.255 17.7808 17.8659C17.7808 17.6227 17.8535 17.4195 18.0017 17.2565C18.1331 17.1162 18.2785 17.0476 18.4434 17.0476C18.5692 17.0476 18.7425 17.0962 18.9634 17.1964C19.0836 17.1077 19.1871 17.0647 19.2793 17.0647C19.3995 17.0647 19.5952 17.1449 19.8664 17.308C20.1432 17.4768 20.5122 17.6456 20.9735 17.8144C21.4627 17.9947 21.8541 18.0834 22.1477 18.0834C22.3853 18.0834 22.581 18.0118 22.7348 17.8659C22.7739 17.8258 22.841 17.7057 22.9305 17.5082C22.9976 17.3623 23.1178 17.2908 23.2883 17.2908C23.3973 17.2908 23.484 17.3308 23.5511 17.4138C23.6238 17.4997 23.6629 17.6027 23.6629 17.72C23.6629 18.0347 23.5259 18.3037 23.2548 18.5297C23.0339 18.7157 22.7543 18.8073 22.4217 18.8073C22.3042 18.8044 22.1169 18.793 21.8569 18.7701ZM19.0557 17.6828C18.9298 17.7515 18.8376 17.8287 18.7789 17.9088C18.7202 17.9889 18.6894 18.0776 18.6894 18.1692C18.6894 18.6098 19.0668 19.0905 19.8217 19.6056C20.6548 20.175 21.3621 20.4582 21.9408 20.4582C22.0834 20.4582 22.1896 20.4296 22.2651 20.3753C22.3378 20.3209 22.3769 20.2379 22.3769 20.1263C22.3769 19.8488 22.089 19.5226 21.5103 19.1506C21.1916 18.9418 20.7247 18.6842 20.1068 18.3752C19.7043 18.1721 19.4387 18.0233 19.3073 17.9317C19.2346 17.8888 19.1535 17.803 19.0557 17.6828Z" fill="white"/>
</g>
<defs>
<clipPath id="clip0_1_520">
<rect width="36" height="65" fill="white"/>
</clipPath>
</defs>
</svg>
