<svg width="284" height="98" viewBox="0 0 284 98" fill="none" xmlns="http://www.w3.org/2000/svg">
<path d="M4 18.5H76C77.933 18.5 79.5 20.067 79.5 22V94C79.5 95.933 77.933 97.5 76 97.5H4C2.067 97.5 0.5 95.933 0.5 94V22C0.5 20.067 2.067 18.5 4 18.5Z" fill="url(#paint0_linear_2013_79)" stroke="#354971"/>
<rect y="57" width="16" height="1" fill="#354971"/>
<rect x="64" y="57" width="16" height="1" fill="#354971"/>
<path d="M26.2969 73.3906C33.3672 73.3906 37.6641 68.1562 37.6641 58.8594C37.6641 49.6211 33.3477 44.3281 26.2969 44.3281C19.2461 44.3281 14.9297 49.6211 14.9297 58.8594C14.9297 68.1172 19.207 73.3906 26.2969 73.3906ZM20.9453 58.8594C20.9453 52.3945 23.0352 49.1523 26.2969 49.1328C29.5586 49.1523 31.668 52.3945 31.6484 58.8594C31.668 65.3828 29.5781 68.5469 26.2969 68.5469C23.0156 68.5469 20.9062 65.3828 20.9453 58.8594ZM52.7031 73.3906C59.7734 73.3906 64.0703 68.1562 64.0703 58.8594C64.0703 49.6211 59.7539 44.3281 52.7031 44.3281C45.6523 44.3281 41.3359 49.6211 41.3359 58.8594C41.3359 68.1172 45.6133 73.3906 52.7031 73.3906ZM47.3516 58.8594C47.3516 52.3945 49.4414 49.1523 52.7031 49.1328C55.9648 49.1523 58.0742 52.3945 58.0547 58.8594C58.0742 65.3828 55.9844 68.5469 52.7031 68.5469C49.4219 68.5469 47.3125 65.3828 47.3516 58.8594Z" fill="white"/>
<path d="M28.8262 11H30.584V7.48438H34.2637V11H36.0332V2.51562H34.2637V6.03125H30.584V2.51562H28.8262V11ZM37.4629 11H39.2207V7.98828H40.5625L42.1855 11H44.1309L42.3262 7.70117C43.293 7.28516 43.8262 6.44141 43.8262 5.28125C43.8262 3.59961 42.7188 2.51562 40.791 2.51562H37.4629V11ZM39.2207 6.55859V3.95703H40.4629C41.5059 3.96289 42.0156 4.42578 42.0098 5.28125C42.0156 6.13086 41.5059 6.55859 40.4629 6.55859H39.2207ZM49.6504 4.94141H51.3379C51.3145 3.44141 50.0781 2.39844 48.1973 2.39844C46.3398 2.39844 44.9805 3.42383 44.9863 4.96484C44.9863 6.20703 45.8652 6.92188 47.2949 7.27344L48.2207 7.49609C49.1465 7.72461 49.6738 7.99414 49.6738 8.57422C49.6738 9.20703 49.0762 9.64062 48.1504 9.64062C47.2129 9.64062 46.5332 9.20703 46.4746 8.35156H44.7637C44.8164 10.1738 46.123 11.123 48.1738 11.1172C50.2422 11.123 51.4492 10.127 51.4551 8.57422C51.4492 7.16211 50.3652 6.42383 48.9121 6.08984L48.1504 5.90234C47.418 5.73828 46.7852 5.46289 46.791 4.84766C46.7969 4.28516 47.2949 3.875 48.1855 3.875C49.0469 3.875 49.5801 4.26758 49.6504 4.94141Z" fill="#A5B6EE"/>
<path d="M88.0007 46.9819C87.9648 48.6523 89.3299 49.9995 91.0183 49.9995C92.6169 49.9995 94 48.6523 94 46.9819C94 45.3294 92.6169 43.9822 91.0183 44.0002C89.3299 43.9822 87.9648 45.3294 88.0007 46.9819Z" fill="#8198D0"/>
<path d="M94 66.9819C94 68.6523 92.6169 69.9995 91.0183 69.9995C89.3299 69.9995 87.9648 68.6523 88.0007 66.9819C87.9648 65.3294 89.3299 63.9822 91.0183 64.0002C92.6169 63.9822 94 65.3294 94 66.9819Z" fill="#8198D0"/>
<path d="M106 18.5H178C179.933 18.5 181.5 20.067 181.5 22V94C181.5 95.933 179.933 97.5 178 97.5H106C104.067 97.5 102.5 95.933 102.5 94V22C102.5 20.067 104.067 18.5 106 18.5Z" fill="url(#paint1_linear_2013_79)" stroke="#354971"/>
<rect x="102" y="57" width="16" height="1" fill="#354971"/>
<rect x="166" y="57" width="16" height="1" fill="#354971"/>
<path d="M131.625 73.3906C138.695 73.3906 142.992 68.1562 142.992 58.8594C142.992 49.6211 138.676 44.3281 131.625 44.3281C124.574 44.3281 120.258 49.6211 120.258 58.8594C120.258 68.1172 124.535 73.3906 131.625 73.3906ZM126.273 58.8594C126.273 52.3945 128.363 49.1523 131.625 49.1328C134.887 49.1523 136.996 52.3945 136.977 58.8594C136.996 65.3828 134.906 68.5469 131.625 68.5469C128.344 68.5469 126.234 65.3828 126.273 58.8594ZM159.242 44.7188H153.695L146.703 49.1719V54.3672L153.188 50.3047H153.344V73H159.242V44.7188Z" fill="white"/>
<path d="M132.07 2.51562V11H133.781V5.42188H133.852L136.066 10.9648H137.238L139.453 5.44531H139.523V11H141.234V2.51562H139.055L136.699 8.26953H136.605L134.25 2.51562H132.07ZM144.422 2.51562H142.664V11H144.422V2.51562ZM152.93 2.51562H151.184V7.90625H151.102L147.398 2.51562H145.852V11H147.609V5.60938H147.68L151.406 11H152.93V2.51562Z" fill="#A5B6EE"/>
<path d="M190.001 46.9819C189.965 48.6523 191.33 49.9995 193.018 49.9995C194.617 49.9995 196 48.6523 196 46.9819C196 45.3294 194.617 43.9822 193.018 44.0002C191.33 43.9822 189.965 45.3294 190.001 46.9819Z" fill="#8198D0"/>
<path d="M196 66.9819C196 68.6523 194.617 69.9995 193.018 69.9995C191.33 69.9995 189.965 68.6523 190.001 66.9819C189.965 65.3294 191.33 63.9822 193.018 64.0002C194.617 63.9822 196 65.3294 196 66.9819Z" fill="#8198D0"/>
<path d="M208 18.5H280C281.933 18.5 283.5 20.067 283.5 22V94C283.5 95.933 281.933 97.5 280 97.5H208C206.067 97.5 204.5 95.933 204.5 94V22C204.5 20.067 206.067 18.5 208 18.5Z" fill="url(#paint2_linear_2013_79)" stroke="#354971"/>
<rect x="204" y="57" width="16" height="1" fill="#354971"/>
<rect x="268" y="57" width="16" height="1" fill="#354971"/>
<path d="M230.297 73.3906C237.367 73.3906 241.664 68.1562 241.664 58.8594C241.664 49.6211 237.348 44.3281 230.297 44.3281C223.246 44.3281 218.93 49.6211 218.93 58.8594C218.93 68.1172 223.207 73.3906 230.297 73.3906ZM224.945 58.8594C224.945 52.3945 227.035 49.1523 230.297 49.1328C233.559 49.1523 235.668 52.3945 235.648 58.8594C235.668 65.3828 233.578 68.5469 230.297 68.5469C227.016 68.5469 224.906 65.3828 224.945 58.8594ZM256.703 73.3906C263.773 73.3906 268.07 68.1562 268.07 58.8594C268.07 49.6211 263.754 44.3281 256.703 44.3281C249.652 44.3281 245.336 49.6211 245.336 58.8594C245.336 68.1172 249.613 73.3906 256.703 73.3906ZM251.352 58.8594C251.352 52.3945 253.441 49.1523 256.703 49.1328C259.965 49.1523 262.074 52.3945 262.055 58.8594C262.074 65.3828 259.984 68.5469 256.703 68.5469C253.422 68.5469 251.312 65.3828 251.352 58.8594Z" fill="white"/>
<path d="M237.666 4.94141H239.354C239.33 3.44141 238.094 2.39844 236.213 2.39844C234.355 2.39844 232.996 3.42383 233.002 4.96484C233.002 6.20703 233.881 6.92188 235.311 7.27344L236.236 7.49609C237.162 7.72461 237.689 7.99414 237.689 8.57422C237.689 9.20703 237.092 9.64062 236.166 9.64062C235.229 9.64062 234.549 9.20703 234.49 8.35156H232.779C232.832 10.1738 234.139 11.123 236.189 11.1172C238.258 11.123 239.465 10.127 239.471 8.57422C239.465 7.16211 238.381 6.42383 236.928 6.08984L236.166 5.90234C235.434 5.73828 234.801 5.46289 234.807 4.84766C234.812 4.28516 235.311 3.875 236.201 3.875C237.062 3.875 237.596 4.26758 237.666 4.94141ZM240.619 11H246.326V9.54688H242.377V7.48438H246.021V6.03125H242.377V3.96875H246.314V2.51562H240.619V11ZM253.357 5.46875H255.139C254.904 3.51758 253.428 2.39844 251.471 2.39844C249.232 2.39844 247.521 3.98633 247.521 6.75781C247.521 9.51758 249.203 11.1172 251.471 11.1172C253.627 11.1172 254.945 9.6875 255.139 8.11719L253.357 8.10547C253.188 9.02539 252.461 9.55273 251.494 9.55859C250.199 9.55273 249.314 8.58594 249.314 6.75781C249.314 4.9707 250.188 3.96289 251.506 3.95703C252.496 3.96289 253.217 4.53125 253.357 5.46875Z" fill="#A5B6EE"/>
<defs>
<linearGradient id="paint0_linear_2013_79" x1="80" y1="98" x2="12.7778" y2="32.4444" gradientUnits="userSpaceOnUse">
<stop stop-color="#304577"/>
<stop offset="1" stop-color="#4C65A0"/>
</linearGradient>
<linearGradient id="paint1_linear_2013_79" x1="182" y1="98" x2="114.778" y2="32.4444" gradientUnits="userSpaceOnUse">
<stop stop-color="#304577"/>
<stop offset="1" stop-color="#4C65A0"/>
</linearGradient>
<linearGradient id="paint2_linear_2013_79" x1="284" y1="98" x2="216.778" y2="32.4444" gradientUnits="userSpaceOnUse">
<stop stop-color="#304577"/>
<stop offset="1" stop-color="#4C65A0"/>
</linearGradient>
</defs>
</svg>
